<?xml version="1.0" standalone="no"?>
<!DOCTYPE svg PUBLIC "-//W3C//DTD SVG 20010904//EN"
 "http://www.w3.org/TR/2001/REC-SVG-20010904/DTD/svg10.dtd">
<svg version="1.0" xmlns="http://www.w3.org/2000/svg"
 width="1000.000000pt" height="1000.000000pt" viewBox="0 0 1000.000000 1000.000000"
 preserveAspectRatio="xMidYMid meet">
<metadata>
Created by potrace 1.14, written by Peter Selinger 2001-2017
</metadata>
<g transform="translate(0.000000,1000.000000) scale(0.100000,-0.100000)"
fill="#000000" stroke="none">
<path d="M6695 9919 c-4 -6 -13 -8 -21 -5 -8 3 -14 0 -14 -7 0 -8 -4 -6 -10 3
-6 9 -10 11 -10 3 0 -7 -7 -10 -15 -7 -8 4 -23 0 -32 -7 -14 -12 -16 -12 -8 1
7 12 6 13 -6 4 -8 -6 -22 -12 -31 -13 -40 -3 -48 -5 -48 -12 0 -4 -8 -6 -17
-4 -10 1 -23 -2 -30 -7 -7 -5 -17 -7 -23 -3 -5 3 -10 1 -10 -4 0 -6 -7 -11
-15 -11 -8 0 -23 -4 -33 -9 -9 -5 -37 -17 -62 -27 -25 -10 -51 -25 -58 -34 -8
-8 -11 -9 -7 -3 4 8 -6 6 -24 -4 -16 -10 -27 -21 -25 -25 3 -5 -4 -8 -16 -8
-11 0 -23 -7 -26 -15 -4 -8 -15 -15 -26 -15 -10 0 -16 -4 -13 -10 3 -5 1 -10
-4 -10 -6 0 -32 -20 -59 -45 -26 -25 -51 -45 -55 -45 -5 0 -6 -4 -2 -9 3 -5
-4 -12 -15 -16 -11 -3 -19 -12 -17 -18 1 -7 -4 -11 -11 -9 -8 1 -11 -1 -8 -6
3 -5 -6 -20 -19 -32 -14 -13 -25 -29 -25 -35 0 -7 -9 -20 -20 -30 -11 -10 -20
-24 -20 -32 0 -7 -4 -13 -9 -13 -5 0 -17 -20 -28 -45 -10 -25 -21 -45 -25 -45
-5 0 -8 -9 -8 -20 0 -11 -4 -20 -10 -20 -5 0 -10 -6 -10 -14 0 -7 -8 -31 -17
-52 -10 -22 -18 -43 -19 -49 0 -5 -6 -23 -13 -40 -12 -28 -15 -40 -26 -90 -8
-36 -16 -70 -22 -95 -3 -14 -6 -35 -6 -47 -1 -13 -3 -23 -6 -23 -7 0 -8 -14
-13 -107 -1 -35 -7 -63 -12 -63 -4 0 -3 -6 3 -13 6 -8 7 -17 3 -21 -12 -13
-10 -300 2 -308 8 -5 7 -8 -1 -8 -9 0 -10 -7 -2 -26 8 -22 7 -25 -3 -17 -16
12 -5410 10 -5453 -2 -36 -10 -103 -70 -117 -105 -6 -14 -12 -41 -14 -60 -3
-19 -6 -43 -8 -52 -2 -10 0 -21 5 -24 5 -3 7 -10 4 -15 -9 -14 -10 -103 -1
-117 4 -7 3 -12 -1 -12 -12 0 -10 -83 2 -92 7 -5 7 -8 0 -8 -11 0 -12 -111 -1
-129 4 -6 4 -11 -1 -11 -7 0 -9 -83 -3 -100 2 -3 2 -9 1 -14 -6 -29 -4 -103 3
-114 4 -7 3 -12 -1 -12 -12 0 -10 -83 2 -92 7 -5 7 -8 0 -8 -11 0 -12 -111 -1
-129 4 -6 4 -11 -1 -11 -7 0 -9 -83 -3 -100 2 -3 2 -9 1 -14 -6 -29 -4 -103 3
-114 4 -7 3 -12 -1 -12 -12 0 -10 -83 2 -92 7 -5 7 -8 0 -8 -11 0 -12 -111 -1
-129 4 -6 4 -11 -1 -11 -7 0 -9 -83 -3 -100 2 -3 2 -9 1 -14 -6 -29 -4 -103 3
-114 4 -7 3 -12 -1 -12 -12 0 -10 -83 2 -92 7 -5 7 -8 0 -8 -11 0 -12 -111 -1
-129 4 -6 4 -11 -1 -11 -7 0 -9 -83 -3 -100 2 -3 2 -9 1 -14 -6 -29 -4 -103 3
-114 4 -7 3 -12 -1 -12 -12 0 -10 -83 2 -92 7 -5 7 -8 0 -8 -11 0 -12 -111 -1
-129 4 -6 4 -11 -1 -11 -7 0 -9 -83 -3 -100 2 -3 2 -9 1 -14 -6 -29 -4 -103 3
-114 4 -7 3 -12 -1 -12 -12 0 -10 -83 2 -92 7 -5 7 -8 0 -8 -11 0 -12 -111 -1
-129 4 -6 4 -11 -1 -11 -7 0 -9 -83 -3 -100 2 -3 2 -9 1 -14 -6 -29 -4 -103 3
-114 4 -7 3 -12 -1 -12 -12 0 -10 -83 2 -92 7 -5 7 -8 0 -8 -11 0 -12 -111 -1
-129 4 -6 4 -11 -1 -11 -7 0 -9 -83 -3 -100 2 -3 2 -9 1 -14 -6 -29 -4 -103 3
-114 4 -7 3 -12 -1 -12 -12 0 -10 -83 2 -92 7 -5 7 -8 0 -8 -11 0 -12 -111 -1
-129 4 -6 4 -11 -1 -11 -7 0 -9 -83 -3 -100 2 -3 2 -9 1 -14 -6 -29 -4 -103 3
-114 4 -7 3 -12 -1 -12 -12 0 -10 -83 2 -92 7 -5 7 -8 0 -8 -11 0 -12 -111 -1
-129 4 -6 4 -11 -1 -11 -7 0 -9 -83 -3 -100 2 -3 2 -9 1 -14 -6 -29 -4 -103 3
-114 4 -7 3 -12 -1 -12 -12 0 -10 -83 2 -92 7 -5 7 -8 0 -8 -11 0 -12 -111 -1
-129 4 -6 3 -11 -2 -11 -5 0 -8 -12 -6 -27 2 -16 4 -43 6 -60 1 -18 6 -33 11
-33 4 0 6 -4 2 -9 -3 -5 1 -15 8 -23 8 -7 19 -23 25 -35 7 -12 36 -32 64 -46
l53 -24 4795 1 c4776 1 4795 1 4830 21 19 11 39 25 45 30 30 31 46 55 50 75 3
13 8 26 12 29 12 9 10 175 -2 183 -7 5 -7 8 0 8 6 0 10 45 10 115 0 70 -4 115
-10 115 -7 0 -7 3 0 8 6 4 10 60 10 132 0 72 -4 128 -10 132 -6 5 -6 8 2 8 12
0 12 17 0 37 -4 6 -2 15 4 19 8 4 7 9 -2 15 -9 6 -10 9 -2 9 12 0 12 17 0 37
-4 6 -2 15 4 19 8 4 7 9 -2 15 -9 6 -10 9 -2 9 12 0 12 17 0 37 -4 6 -2 15 4
19 8 4 7 9 -2 15 -9 6 -10 9 -2 9 13 0 12 18 -1 39 -5 8 -5 12 0 8 5 -3 9 29
9 74 0 46 -4 79 -10 79 -7 0 -7 3 0 8 6 4 10 55 10 117 0 62 -4 113 -10 117
-7 5 -7 8 0 8 6 0 10 49 10 127 0 74 -4 131 -10 135 -6 5 -6 8 2 8 12 0 12 17
0 37 -4 6 -2 15 4 19 8 4 7 9 -2 15 -9 6 -10 9 -2 9 12 0 12 17 0 37 -4 6 -2
15 4 19 8 4 7 9 -2 15 -9 6 -10 9 -2 9 12 0 12 17 0 37 -4 6 -2 15 4 19 8 4 7
9 -2 15 -9 6 -10 9 -2 9 13 0 12 18 -1 39 -5 8 -5 12 0 8 5 -3 9 29 9 74 0 46
-4 79 -10 79 -7 0 -7 3 0 8 6 4 10 55 10 117 0 62 -4 113 -10 117 -7 5 -7 8 0
8 6 0 10 49 10 127 0 74 -4 131 -10 135 -6 5 -6 8 2 8 12 0 12 17 0 37 -4 6
-2 15 4 19 8 4 7 9 -2 15 -9 6 -10 9 -2 9 12 0 12 17 0 37 -4 6 -2 15 4 19 8
4 7 9 -2 15 -9 6 -10 9 -2 9 12 0 12 17 0 37 -4 6 -2 15 4 19 8 4 7 9 -2 15
-9 6 -10 9 -2 9 13 0 12 18 -1 39 -5 8 -5 12 0 8 5 -3 9 29 9 74 0 46 -4 79
-10 79 -7 0 -7 3 0 8 6 4 10 55 10 117 0 62 -4 113 -10 117 -7 5 -7 8 0 8 6 0
10 49 10 127 0 74 -4 131 -10 135 -6 5 -6 8 2 8 12 0 12 17 0 37 -4 6 -2 15 4
19 8 4 7 9 -2 15 -9 6 -10 9 -2 9 12 0 12 17 0 37 -4 6 -2 15 4 19 8 4 7 9 -2
15 -9 6 -10 9 -2 9 12 0 12 17 0 37 -4 6 -2 15 4 19 8 4 7 9 -2 15 -9 6 -10 9
-2 9 13 0 12 18 -1 39 -5 8 -5 12 0 8 5 -3 9 29 9 74 0 46 -4 79 -10 79 -7 0
-7 3 0 8 6 4 10 55 10 117 0 62 -4 113 -10 117 -7 5 -7 8 0 8 6 0 10 49 10
127 0 74 -4 131 -10 135 -6 5 -6 8 2 8 12 0 12 17 0 37 -4 6 -2 15 4 19 8 4 7
9 -2 15 -9 6 -10 9 -2 9 12 0 12 17 0 37 -4 6 -2 15 4 19 8 4 7 9 -2 15 -9 6
-10 9 -2 9 12 0 12 17 0 37 -4 6 -2 15 4 19 8 4 7 9 -2 15 -9 6 -10 9 -2 9 13
0 12 18 -1 39 -6 10 -5 12 2 7 8 -5 10 3 6 26 -8 53 -27 108 -36 108 -4 0 -8
7 -8 16 0 8 -4 12 -10 9 -5 -3 -10 1 -10 9 0 9 -7 16 -15 16 -8 0 -15 4 -15 9
0 11 -39 26 -57 23 -7 -2 -13 1 -13 5 0 4 -899 8 -1997 8 -1191 -1 -2003 3
-2010 8 -7 5 -10 14 -6 21 11 16 10 30 -1 38 -6 4 -5 13 3 22 8 9 10 16 5 16
-11 0 -10 161 1 180 6 9 4 11 -6 5 -12 -8 -12 -6 0 8 10 13 10 17 1 17 -8 0
-9 4 -3 13 5 6 9 29 8 50 0 20 4 37 10 37 5 0 3 5 -5 10 -8 5 -10 10 -4 10 5
0 9 15 8 32 -1 18 2 39 8 45 8 9 7 13 -3 13 -12 0 -12 2 0 9 7 5 10 14 7 20
-4 6 -3 11 2 11 6 0 8 9 5 20 -3 11 -1 20 3 20 5 0 10 12 10 28 2 34 8 64 16
77 3 6 9 25 13 44 4 19 14 50 23 70 8 20 17 42 18 50 2 8 8 17 14 21 7 4 12
11 11 16 -1 17 11 54 18 54 3 0 15 18 25 40 11 22 22 40 26 40 4 0 11 8 14 18
12 32 33 62 39 55 4 -3 7 -1 7 5 0 14 112 128 122 124 5 -1 8 5 8 15 0 9 3 14
6 10 3 -3 15 3 27 13 11 11 25 17 30 13 6 -3 7 -2 4 4 -3 5 14 20 38 32 25 12
47 26 50 32 4 5 10 7 15 4 5 -3 11 -1 15 5 4 6 11 8 16 5 5 -4 9 -1 9 4 0 6 7
11 15 11 9 0 28 8 42 18 21 13 25 14 18 2 -8 -13 -7 -13 8 -1 10 8 27 15 40
16 37 4 38 5 33 13 -3 5 1 9 9 9 8 0 15 -5 15 -11 0 -6 4 -4 10 4 5 8 12 11
16 7 4 -4 13 -2 20 4 8 7 14 7 19 -1 5 -8 11 -7 22 2 24 20 300 20 332 1 13
-8 21 -11 17 -5 -3 5 6 10 19 10 14 0 25 -4 25 -8 0 -4 10 -6 23 -6 12 1 27 0
32 -3 6 -3 13 -6 18 -7 4 -1 8 -2 10 -4 1 -1 11 -3 22 -5 41 -7 55 -11 61 -18
4 -4 16 -7 26 -7 25 0 197 -76 209 -93 3 -5 9 -8 13 -8 11 2 86 -51 86 -61 0
-5 4 -7 9 -4 8 5 63 -50 121 -123 14 -17 28 -31 32 -31 4 0 18 -10 31 -22 38
-37 67 -58 77 -58 6 0 10 -4 10 -10 0 -5 6 -10 14 -10 8 0 16 -3 18 -7 4 -11
127 -69 161 -77 15 -3 27 -11 27 -16 0 -5 7 -7 15 -4 8 4 22 1 30 -6 8 -7 26
-10 40 -8 13 3 22 2 20 -2 -3 -5 2 -11 11 -14 10 -4 13 -2 8 7 -5 8 -2 7 9 -2
9 -7 17 -11 17 -7 0 3 12 1 26 -4 18 -7 23 -7 18 1 -4 7 3 6 17 -2 13 -7 25
-12 27 -11 1 1 3 2 5 1 15 -5 219 -4 228 2 6 4 25 3 40 -1 16 -5 29 -5 29 0 0
5 18 7 40 6 22 -2 40 1 40 6 0 5 4 6 10 3 5 -3 19 -1 30 5 15 8 20 8 20 -1 0
-8 4 -9 13 0 8 6 17 8 20 4 4 -3 7 -2 7 4 0 5 10 9 23 8 12 -1 28 2 35 8 7 5
15 7 18 4 3 -3 23 1 44 8 29 10 40 11 44 2 2 -7 5 -4 5 6 1 10 5 16 10 13 7
-5 26 0 91 22 8 3 18 6 23 7 4 2 8 3 10 5 1 1 11 3 21 5 10 2 22 7 25 12 5 7
23 12 58 15 7 1 15 8 18 17 5 13 7 14 15 1 7 -10 10 -11 10 -2 0 6 9 12 20 12
11 0 20 5 20 11 0 5 5 7 10 4 6 -3 10 -1 10 6 0 7 3 9 7 6 3 -4 12 -2 20 4 7
6 13 8 13 5 0 -4 7 0 16 8 8 9 20 14 25 11 5 -4 9 -1 9 4 0 6 3 10 8 9 10 -2
66 25 74 37 4 5 8 6 8 1 0 -5 9 -1 21 10 12 10 24 19 28 18 14 -2 61 23 54 29
-6 6 11 11 30 8 4 0 7 3 7 9 0 5 9 10 21 10 13 0 18 4 13 12 -5 8 -2 9 9 5 10
-3 17 -3 17 1 0 6 53 40 65 42 2 0 17 12 31 25 15 14 29 23 32 21 2 -3 10 0
18 7 33 30 42 35 48 30 3 -4 6 -1 6 5 0 5 17 21 38 33 20 13 40 28 44 33 8 12
11 176 3 176 -5 0 -97 -69 -105 -79 -3 -3 -12 -7 -20 -9 -8 -2 -19 -10 -23
-18 -4 -8 -15 -14 -23 -14 -8 0 -17 -7 -20 -15 -4 -8 -10 -13 -14 -10 -4 3
-13 -2 -20 -10 -6 -8 -36 -28 -66 -45 -30 -16 -54 -34 -54 -40 0 -5 -6 -7 -13
-4 -7 2 -26 -6 -42 -20 -16 -14 -32 -23 -37 -20 -4 3 -8 0 -8 -6 0 -6 -4 -8
-10 -5 -5 3 -10 2 -10 -3 0 -9 -70 -47 -82 -44 -5 1 -8 -2 -8 -8 0 -5 -4 -10
-10 -10 -5 0 -49 -19 -97 -41 -49 -23 -94 -42 -100 -42 -7 0 -13 -4 -13 -9 0
-5 -4 -6 -10 -3 -5 3 -10 1 -10 -4 0 -6 -3 -10 -7 -9 -12 3 -86 -23 -102 -36
-8 -6 -16 -10 -18 -8 -3 3 -72 -15 -103 -26 -8 -3 -22 -6 -30 -6 -8 0 -18 -4
-21 -8 -3 -5 -22 -9 -42 -10 -20 -1 -37 -4 -37 -7 0 -7 -30 -13 -72 -13 -15 0
-26 -4 -23 -8 2 -4 -9 -6 -26 -4 -16 2 -28 0 -25 -4 2 -4 -12 -6 -32 -6 -20 1
-44 -2 -54 -7 -10 -6 -19 -5 -23 1 -4 6 -13 7 -23 1 -11 -6 -24 -6 -35 0 -11
7 -17 6 -17 -1 0 -7 -6 -8 -18 -1 -11 6 -24 6 -35 0 -11 -7 -17 -6 -17 1 0 7
-6 8 -19 1 -10 -6 -21 -7 -25 -3 -4 3 -21 7 -39 8 -18 1 -32 3 -32 4 0 2 -39
7 -87 12 -10 1 -18 5 -18 9 0 4 -8 6 -17 5 -9 -2 -28 3 -42 10 -13 7 -28 11
-33 8 -4 -3 -8 0 -8 5 0 6 -3 10 -7 9 -13 -3 -83 25 -83 34 0 4 -9 8 -20 8
-11 0 -20 5 -20 10 0 6 -7 10 -15 10 -8 0 -15 5 -15 10 0 6 -7 10 -15 10 -8 0
-15 5 -15 10 0 6 -7 10 -15 10 -8 0 -15 7 -15 15 0 8 -4 14 -9 12 -8 -2 -91
80 -91 90 0 12 -115 110 -147 125 -13 6 -23 15 -23 19 0 4 -17 16 -37 26 -21
9 -41 21 -44 26 -3 5 -10 9 -15 9 -5 0 -31 11 -59 23 -27 13 -75 31 -105 41
-30 11 -56 22 -58 25 -2 4 -12 5 -22 2 -11 -3 -20 -1 -20 5 0 6 -9 9 -20 7
-11 -2 -22 1 -25 6 -4 5 -10 7 -15 4 -5 -3 -11 -2 -14 3 -2 4 -21 7 -40 7 -20
-1 -36 2 -36 7 0 4 -3 7 -7 7 -34 -6 -93 3 -87 12 5 8 1 8 -13 0 -14 -7 -23
-7 -31 1 -9 9 -12 9 -12 -2 0 -11 -3 -11 -12 -2 -7 7 -17 8 -29 2 -10 -6 -20
-6 -23 -2 -6 10 -36 9 -54 -2 -6 -4 -12 -3 -12 2 0 10 -30 9 -48 -2 -7 -4 -12
-2 -12 5 0 8 -5 7 -17 -2 -11 -10 -14 -10 -9 -1 4 6 5 12 2 12 -3 0 -8 -5 -11
-11z"/>
<path d="M3390 2713 c-92 -14 -288 -79 -310 -103 -3 -3 -25 -19 -49 -35 -62
-42 -135 -133 -161 -202 -18 -45 -23 -80 -24 -158 -1 -118 6 -161 39 -232 69
-153 199 -239 570 -383 33 -12 110 -46 170 -75 163 -76 207 -137 183 -251 -21
-99 -133 -155 -318 -160 -175 -5 -323 36 -509 140 l-44 25 -89 -139 c-49 -77
-87 -144 -83 -150 18 -30 203 -126 305 -158 142 -46 226 -57 420 -56 167 0
195 3 282 27 120 32 237 91 303 154 47 45 123 153 129 184 1 8 9 34 16 59 7
25 13 90 13 145 -1 164 -39 262 -142 365 -62 61 -69 66 -161 113 -59 31 -297
129 -342 142 -5 2 -10 4 -13 5 -3 1 -8 4 -12 5 -78 23 -228 101 -260 135 -58
62 -59 146 -1 206 53 56 179 81 319 62 116 -15 161 -30 288 -95 57 -30 104
-53 106 -51 1 2 43 65 94 140 104 157 106 131 -15 200 -67 39 -221 99 -299
117 -27 6 -61 14 -75 17 -29 7 -294 12 -330 7z"/>
<path d="M1074 1745 l0 -935 206 0 205 0 0 461 c-1 449 0 460 18 437 10 -12
31 -39 46 -58 16 -19 48 -61 72 -92 63 -81 117 -150 264 -339 72 -92 172 -221
223 -288 l94 -121 248 0 c137 0 251 4 254 8 4 6 -95 138 -171 227 -10 11 -100
124 -202 250 -102 127 -187 232 -191 235 -14 12 -210 263 -210 268 0 4 15 23
33 43 17 19 75 87 129 150 53 63 104 123 115 134 10 12 43 50 73 85 30 36 57
67 60 70 3 3 30 34 60 70 30 36 57 67 60 70 5 5 89 104 135 158 11 14 32 38
47 55 14 17 24 35 22 39 -3 4 -110 8 -237 8 l-232 -1 -25 -33 c-14 -18 -42
-53 -62 -77 -20 -24 -76 -91 -123 -149 -93 -112 -149 -179 -178 -214 -11 -11
-33 -38 -50 -60 -97 -117 -239 -289 -255 -306 -17 -19 -18 -7 -18 408 l0 427
-205 3 -205 2 0 -935z"/>
<path d="M4539 2678 c-1 -2 -2 -423 -3 -935 l-1 -933 196 0 c149 0 198 3 201
12 2 7 3 264 3 571 -1 306 2 554 5 550 4 -5 13 -24 20 -43 12 -32 92 -195 331
-672 l94 -188 159 3 159 2 48 95 c151 300 362 732 379 775 l19 50 0 -577 1
-578 203 0 203 0 0 935 0 935 -214 -2 -213 -3 -73 -140 c-40 -77 -112 -216
-161 -310 -48 -93 -91 -174 -95 -180 -5 -5 -48 -91 -98 -190 -84 -168 -107
-220 -145 -320 -13 -34 -16 -37 -22 -20 -21 60 -114 270 -145 330 -20 39 -71
135 -112 215 -42 80 -105 201 -140 270 -36 69 -91 176 -123 238 l-58 112 -208
0 c-115 0 -210 -1 -210 -2z"/>
<path d="M6963 1745 l-1 -935 199 0 199 0 1 578 0 577 20 -50 c10 -27 112
-236 226 -462 l207 -413 158 0 158 0 203 413 c111 226 212 432 223 456 l20 44
-1 -559 c0 -307 1 -565 3 -571 3 -10 53 -13 203 -13 109 0 199 3 200 8 1 4 2
424 3 935 l1 927 -212 0 -211 0 -45 -82 c-24 -46 -82 -155 -127 -243 -46 -88
-99 -189 -118 -225 -141 -261 -227 -440 -294 -608 -10 -27 -11 -26 -29 28 -34
96 -174 384 -339 695 -75 141 -192 367 -209 403 l-15 32 -212 0 -211 0 0 -935z"/>
</g>
</svg>
